<!DOCTYPE svg PUBLIC "-//W3C//DTD SVG 1.1//EN" "http://www.w3.org/Graphics/SVG/1.1/DTD/svg11.dtd">
<!-- Uploaded to: SVG Repo, www.svgrepo.com, Transformed by: SVG Repo Mixer Tools -->
<svg fill="#000000" width="800px" height="800px" viewBox="0 0 24 24" id="chart-column" data-name="Flat Color" xmlns="http://www.w3.org/2000/svg" class="icon flat-color">
<g id="SVGRepo_bgCarrier" stroke-width="0"/>
<g id="SVGRepo_tracerCarrier" stroke-linecap="round" stroke-linejoin="round"/>
<g id="SVGRepo_iconCarrier">
<rect id="secondary" x="9.5" y="6" width="5" height="16" rx="1" style="fill: #2ca9bc;"/>
<path id="primary" d="M7,12v9a1,1,0,0,1-1,1H3a1,1,0,0,1-1-1V12a1,1,0,0,1,1-1H6A1,1,0,0,1,7,12ZM21,2H18a1,1,0,0,0-1,1V21a1,1,0,0,0,1,1h3a1,1,0,0,0,1-1V3A1,1,0,0,0,21,2Z" style="fill: #f97777;"/>
</g>
</svg>