<?xml version="1.0" encoding="iso-8859-1"?>
<!-- Uploaded to: SVG Repo, www.svgrepo.com, Generator: SVG Repo Mixer Tools -->
<svg xmlns="http://www.w3.org/2000/svg" xmlns:xlink="http://www.w3.org/1999/xlink" version="1.1" id="Layer_1"  viewBox="0 0 306 306" xml:space="preserve" width="512" height="512">
<g>
	<path style="fill:#C4C8C4;" d="M305.587,219L290.5,199h-0.013c0.003-0.167-0.487-0.332-0.487-0.5v-136   c0-14.912-11.588-26.5-26.5-26.5h-222C26.588,36,14,47.588,14,62.5v136c0,0.168,0.51,0.333,0.513,0.5H14L0,219.036v7.376   C0,250.437,19.262,270,43.286,270h219.427C286.738,270,306,250.437,306,226.412V219H305.587z"/>
	<path style="fill:#A5A9A6;" d="M153,36H41.5C26.588,36,14,47.588,14,62.5v136c0,0.168,0.51,0.333,0.513,0.5H14L0,219.036v7.376   C0,250.437,19.262,270,43.286,270H153L153,36z"/>
	<rect x="45" y="68" style="fill:#32A5B9;" width="213" height="123"/>
	<rect x="45" y="68" style="fill:#2B8A9A;" width="108" height="123"/>
</g>















</svg>